<svg version="1" id="Layer_1" xmlns="http://www.w3.org/2000/svg" viewBox="0 0 977 122">
    <style>.st0{fill:#e30a17}.st1{fill:#fff}</style>
    <path class="st0"
        d="M609.4 51.8c10.7-1.5 21.6-1.2 32.4-.6 6.4.5 14.1 2.1 17.2 8.5 3.4 7.6 2.7 16.2 3 24.3-.4 7.4-.3 16.5-7.1 21.2-7.5 4.6-16.8 3.3-25.2 3.6-9.2-.3-19.1 1.2-27.5-3.2-7-4.2-7.1-13.4-7.5-20.6-.1-7.9-.4-16.2 2.1-23.8 1.8-5.5 7.3-8.5 12.6-9.4zm2.8 9.8c-2.4.4-4.7 1.7-5.6 4-2.4 5.5-1.6 11.6-1.8 17.4 0 4.7.1 10 3.3 13.6 4 2.6 9.1 2.2 13.7 2.6 7.8-.1 15.7.6 23.4-1 5.4-1.3 6.6-7.5 6.6-12.3-.2-6.3.8-12.8-1.1-18.9-.8-3.1-3.7-5.3-6.8-5.8-5-.9-10.1-.5-15.1-.6-5.6.2-11.2-.2-16.6 1zm70.6-6.8c7.8-4.8 17.3-3.3 26-3.6 7.2-.3 14.9 1.3 20.2 6.5 4.7 4.4 6.2 11 6.4 17.2.1 11.2-.1 22.4.1 33.6-3.3.2-6.7.2-10 .2-.1-11.8 0-23.6-.1-35.4-.1-4.6-2.5-9-6.6-11.3-4.5-2.7-9.9-2-14.9-2.1-4.3.1-8.7-.5-12.7 1.2-4.9 1.8-8.4 6.6-8.3 11.8-.1 11.9 0 23.8 0 35.8H673c-.1-11.6 0-23.2 0-34.8-.3-7.4 3-15.3 9.8-19.1zm63.2-3.5h9.9c.2 11.6 0 23.2.1 34.8.2 3.7.6 7.7 3.1 10.6 2.8 2.7 7 2.7 10.7 3 9.7.1 19.5 0 29.2.1v9c-10.1-.1-20.2 0-30.3 0-5.5-.3-11.2-1-16-3.7-4.8-3.2-5.8-9.5-6.5-14.9-1.1-13 .2-26-.2-38.9zm59.4-.1c3.3.1 6.5.1 9.8 0 .3 19.1-.1 38.3.2 57.4-3.4.2-6.8.2-10.2 0 .3-19.1-.1-38.3.2-57.4zm32.4 3.6c7.8-4.8 17.3-3.3 26-3.5 7.2-.3 14.9 1.3 20.1 6.5 4.9 4.6 6.4 11.7 6.3 18.3-.1 10.9.1 21.8-.1 32.8-3.3-.1-6.6-.1-9.8 0-.2-11.8 0-23.6-.1-35.4-.1-4.5-2.5-9-6.4-11.2-5.8-3.4-12.7-1.8-19.1-2.2-5.5-.4-11.6 1.2-14.8 6-2.1 2.9-2.3 6.6-2.2 10v32.8h-10V73.1c.2-7.3 3.7-14.7 10.1-18.3zm65.7 3c4.9-6.5 13.9-6.5 21.3-6.8 10.7.3 21.7-1.1 32.1 1.9 5.2 1.4 10.1 5.1 11 10.7.9 6.6.6 13.4.5 20-19.9-.2-39.7.1-59.6-.1.1 4.9.1 11 4.3 14.3 5.1 2.6 11.1 2.1 16.7 2.2 8-.2 16.2.6 24.1-1 3.5-.7 5-4.2 5.5-7.4 3.1.1 6.1.1 9.2.1.1 5.7-1.8 12.5-7.7 14.7-8 2.9-16.7 2.2-25.1 2.3-8.4-.2-17 .7-25.2-1.7-4.6-1.3-8.3-5.1-9.5-9.7-1.8-6.7-1.6-13.6-1.6-20.5.3-6.3.2-13.4 4-19zm10.1 4.1c-4.5 2.5-4.6 8.4-4.9 12.9h50.2c0-3.2.2-6.4-.5-9.5-.9-2.7-3.6-4.2-6.2-4.6-6.8-1.1-13.7-.5-20.6-.7-5.9.1-12.3-.5-18 1.9z" />
    <path
        d="M189.3 58.6c2.6-5.4 9-7.1 14.4-7.3 10.6-.1 21.3 0 31.9 0 5.5.1 11.5 1.3 15.3 5.6 2.7 2.9 3.4 7 3.4 10.9-3.4 0-6.9 0-10.3.1-.2-4.1-3.5-7.3-7.5-7.4-9.9-.3-19.9 0-29.8-.1-3-.1-6.6 1.1-7.6 4.2-1.4 3-.2 7 2.9 8.4 5.8 2.9 12.5 2.1 18.8 2.1 7.9-.6 16-1 23.6 1.6 5 1.6 9.2 6 9.9 11.3.6 5.1.5 10.8-2.4 15.2-2.9 4.2-8.3 5.4-13 5.7-11.4.1-22.8 0-34.1 0-5.1-.1-10.7-1.6-13.9-5.8-2.4-3.1-2.9-7-3-10.8 3.4.1 6.7 0 10.1.1 0 4.3 3.8 7.3 7.9 7.4 9.3.2 18.7 0 28 .1 3.3.1 7.3-.4 9.4-3.4 2.1-3.4 1.4-8.5-2.1-10.7-3.3-2.1-7.4-2.2-11.3-2.5-11.4-.2-23.4 2.3-34.3-2.1-8.6-3.7-9.8-15-6.3-22.6zm83.2-3.8c8.2-4.8 18.1-3.8 27.2-4 7.9.1 16.5-.4 23.7 3.8 5.4 3.1 9 9.2 8.9 15.5-.5 12.9-.2 25.8-.3 38.8h-10.2v-4.7c-5.1 4-11.7 5.2-18.1 4.9-9.3-.2-18.7.7-27.8-1.4-4.9-1-8.8-5-9.9-9.8-1.5-6.3-1.1-13.6 2.9-18.8 3.8-4.5 10.1-5.2 15.5-5.6 7.8-.3 15.6 0 23.4-.1 4.9-.1 10.1.6 14.1 3.7-.3-4.6-.3-9.9-3.7-13.3-5.2-3.9-12.3-2.9-18.4-3.1-6.6.3-13.5-.9-19.8 1.7-2.9 1-4.5 3.8-4.7 6.8h-10.1c-.3-5.8 2.3-11.7 7.3-14.4zm15.6 27.5c-3 .2-6.3.3-9 1.9-5.1 2.8-5.1 11.8.6 13.9 5.2 1.8 10.7 1.3 16.1 1.4 7-.2 14.2.8 20.9-1.6 5-1.8 6.6-8.9 2.9-12.7-2.6-2.5-6.4-2.8-9.8-2.9-7.2 0-14.5-.1-21.7 0zm53.7-31.1h9.9c.2 11.6-.6 23.1-.1 34.7.4 3.9.6 8.5 3.7 11.3 3 2 6.8 2.3 10.4 2.5h29c0 3 0 6-.1 9.1-10.8-.2-21.6.2-32.4-.2-5.9-.6-12.9-1.3-16.8-6.3-3.3-5.1-3.7-11.4-4-17.3.1-11.3.1-22.5.4-33.8zm63.3 2.5c7.4-3.1 15.7-2.7 23.6-2.7 9.4.1 19.2-.8 28 3.1 4.4 1.9 7.8 6.1 8.2 11 .6 6.1.2 12.3.3 18.5h-59.8c.5 4.9.1 11.1 4.5 14.3 5.5 2.6 11.9 2 17.8 2.2 7.7-.2 15.5.7 23.1-1.1 3.3-.7 4.9-4.1 5.1-7.2h9.4c.1 4.9-1.1 10.6-5.4 13.5-4.5 2.9-10 3-15.2 3.4-8.7.2-17.3.1-26 .1-5.4-.3-11.3-.6-15.9-3.9-3.7-2.7-5.4-7.3-5.9-11.7-1.1-8.7-1-17.6.1-26.3.7-5.3 3.1-10.9 8.1-13.2zm4.3 8.9c-3.4 3-3.4 7.9-3.9 12 16.8.3 33.5 0 50.3.2 0-3.3.3-6.6-.4-9.7-1.3-3.4-5.2-4.5-8.4-4.7-8-.7-16.1-.2-24.1-.4-4.7.2-9.6 0-13.5 2.6zm79.7-11.3c10.6-.2 21.1 0 31.7-.1 5.5.1 11.5 1.1 15.5 5.2 2.9 3 3.6 7.3 3.9 11.2-3.5.1-7 .1-10.5.1-.1-4.7-4.5-7.6-8.9-7.5-10.2 0-20.5-.2-30.7.1-5.7.3-8.1 8.5-3.5 11.8 5.3 3.6 12.1 2.8 18.2 2.8 9.2-.4 19-1.5 27.6 2.5 4.8 2.2 7.6 7.3 7.9 12.5.3 5.4-.5 11.8-4.9 15.5-4.8 3.4-11 3.4-16.6 3.3h-29c-4.8-.2-10.1-1.7-13.2-5.7-2.4-3-2.9-7-3.2-10.8 3.4-.1 6.8 0 10.1-.1 0 4.2 3.5 7.2 7.5 7.4 8.9.3 17.8 0 26.7.1 3.3 0 7.1.2 9.8-2 3.4-3 3.2-9.4-.7-11.9-3.2-2.2-7.3-2.3-11-2.6-11.5-.1-23.8 2.5-34.8-2-8.2-3.7-9.4-14.6-6.2-22.1 2.3-5.6 8.8-7.4 14.3-7.7zM552 79h30v8.8h-30V79z" />
    <path class="st1" d="M22 42.4h148.7v73.3H22z" />
    <path class="st0"
        d="M54.5 0H70c-.3 3.8-.2 7.7-.2 11.6C77.8 7.9 86 4.6 94 .8c.3-.2.8-.6 1-.8h.6c.2.2.5.6.7.9 29.4 13.6 59.1 26.5 88.5 40-3.7.1-7.4.1-11 .1v75.8h-157c-.1-25 0-50 0-75H5.6c16.2-8.3 32.6-16.2 48.9-24.3.1-5.9 0-11.7 0-17.5zM25 51.3v57.5h9.7c.1-7.3 0-14.5 0-21.8 11.6.1 23.3-.6 34.9-.1 3.6.1 7.4 1.9 8.5 5.5 1.6 5.3.6 10.9.8 16.4h9.9c0-5.9.3-11.9-.2-17.9-.3-3.8-2.4-7.5-6-9.2 2.1-2.1 3.9-4.7 4.1-7.7.6-5.6.5-11.7-2.6-16.6-3.1-4.7-9.2-5.9-14.4-6.2-14.8 0-29.7.1-44.7.1zm81.1 2.2c-5.2 2.2-8 7.7-8.6 13.1-1.1 8.1-1.1 16.4-.4 24.5.4 5.2 2 10.9 6.5 14 4.7 3 10.6 3.4 16.1 3.6 8.6 0 17.2.1 25.8-.1 5.4-.5 11.3-.6 15.8-4.1 3.6-3.2 4.4-8.2 4.5-12.8h-9.3c-.4 3.3-2.1 6.6-5.6 7.3-7.9 1.5-16.1.7-24.2.9-5.5-.1-11.5.3-16.5-2.3-4.1-3.4-4.1-9.4-4.1-14.3 19.8.2 39.7-.1 59.5.2.2-6.2.4-12.5-.2-18.7-.4-4.4-3.2-8.4-7.2-10.3-8.2-4.1-17.6-3.5-26.4-3.5-8.6.1-17.5-.7-25.7 2.5z" />
    <path class="st0"
        d="M110.2 62.3c4.1-2.3 9-2.2 13.6-2.3 8 .2 16.1-.4 24.1.4 3.1.3 6.7 1.4 7.8 4.7.7 3.1.6 6.4.7 9.6-16.8.4-33.5-.1-50.3.2.1-4.4.4-9.6 4.1-12.6zm-75.4-1.1c11 .1 22 0 32.9 0 3.1 0 6.7.5 8.6 3.3 1.7 2.9 1.4 6.8-.5 9.6-1.7 2-4.4 2.8-7 2.7-11.3 0-22.7-.1-34 0V61.2z" />
</svg>