<svg width="24" height="24" viewBox="0 0 24 24" fill="none" xmlns="http://www.w3.org/2000/svg"><path d="M8.28306 11C7.50213 11 7.02256 10.1449 7.42978 9.47855L11.1467 3.39628C11.5366 2.75821 12.4634 2.75821 12.8533 3.39628L16.5702 9.47855C16.9774 10.1449 16.4979 11 15.7169 11H8.28306ZM17.5 22C16.25 22 15.1877 21.5627 14.313 20.688C13.4383 19.8133 13.0007 18.7507 13 17.5C12.9993 16.2493 13.437 15.187 14.313 14.313C15.189 13.439 16.2513 13.0013 17.5 13C18.7487 12.9987 19.8113 13.4363 20.688 14.313C21.5647 15.1897 22.002 16.252 22 17.5C21.998 18.748 21.5607 19.8107 20.688 20.688C19.8153 21.5653 18.7527 22.0027 17.5 22ZM4 21.5C3.44772 21.5 3 21.0523 3 20.5V14.5C3 13.9477 3.44772 13.5 4 13.5H10C10.5523 13.5 11 13.9477 11 14.5V20.5C11 21.0523 10.5523 21.5 10 21.5H4ZM17.5 20C18.2 20 18.7917 19.7583 19.275 19.275C19.7583 18.7917 20 18.2 20 17.5C20 16.8 19.7583 16.2083 19.275 15.725C18.7917 15.2417 18.2 15 17.5 15C16.8 15 16.2083 15.2417 15.725 15.725C15.2417 16.2083 15 16.8 15 17.5C15 18.2 15.2417 18.7917 15.725 19.275C16.2083 19.7583 16.8 20 17.5 20ZM5 18.5C5 19.0523 5.44772 19.5 6 19.5H8C8.55228 19.5 9 19.0523 9 18.5V16.5C9 15.9477 8.55228 15.5 8 15.5H6C5.44772 15.5 5 15.9477 5 16.5V18.5ZM10.9949 7.47365C10.5825 8.13984 11.0616 9 11.8452 9H12.1548C12.9384 9 13.4175 8.13984 13.0051 7.47365L12.8503 7.22351C12.4593 6.59198 11.5407 6.59198 11.1497 7.22351L10.9949 7.47365Z" fill="#222222"></path></svg>