<svg width="24" height="24" viewBox="0 0 24 24" fill="none" xmlns="http://www.w3.org/2000/svg"><path d="M17.4204 12.0193C17.4245 10.664 16.9167 9.35713 15.9985 8.36022C15.0804 7.36331 13.8197 6.74987 12.4687 6.64264C11.1176 6.53541 9.77591 6.94231 8.71202 7.78191C7.64813 8.62152 6.94052 9.8319 6.73079 11.1709C7.13879 11.1381 7.54559 11.1365 7.95119 11.1661C8.06708 10.6067 8.2964 10.077 8.62499 9.60974C8.95358 9.14247 9.37447 8.74751 9.86167 8.44926C10.3489 8.151 10.892 7.95579 11.4576 7.87566C12.0232 7.79554 12.5993 7.8322 13.1501 7.9834C13.701 8.13459 14.215 8.3971 14.6605 8.75472C15.1059 9.11234 15.4733 9.55748 15.74 10.0627C16.0067 10.5678 16.167 11.1223 16.2111 11.6918C16.2551 12.2614 16.1819 12.8339 15.996 13.3741C16.464 13.3069 16.9128 13.1917 17.322 13.0501C17.3876 12.7157 17.4204 12.3729 17.4204 12.0193ZM6.09239 5.25726L6.00839 5.18766C5.8852 5.10209 5.73442 5.06577 5.58578 5.08585C5.43713 5.10594 5.3014 5.18097 5.20532 5.29616C5.10925 5.41136 5.05982 5.55836 5.06675 5.70819C5.07369 5.85803 5.13649 5.99983 5.24279 6.10566L6.27239 7.13526L6.35639 7.20486C6.47959 7.29043 6.63037 7.32675 6.77901 7.30667C6.92766 7.28659 7.06339 7.21155 7.15946 7.09636C7.25553 6.98117 7.30497 6.83417 7.29804 6.68433C7.2911 6.53449 7.22829 6.39269 7.12199 6.28686L6.09239 5.25726ZM18.8868 6.02166C18.971 5.8984 19.0062 5.74818 18.9856 5.60034C18.965 5.4525 18.89 5.31765 18.7753 5.22214C18.6606 5.12662 18.5144 5.07729 18.3653 5.08379C18.2161 5.09028 18.0748 5.15213 17.9688 5.25726L16.938 6.28686L16.8684 6.37086C16.7842 6.49412 16.749 6.64434 16.7696 6.79218C16.7902 6.94002 16.8652 7.07487 16.9799 7.17038C17.0946 7.2659 17.2408 7.31523 17.3899 7.30874C17.5391 7.30224 17.6804 7.24039 17.7864 7.13526L18.8172 6.10566L18.8868 6.02166ZM12.624 2.92206C12.5973 2.77452 12.5163 2.64234 12.397 2.55152C12.2777 2.46071 12.1287 2.41786 11.9794 2.43141C11.8301 2.44496 11.6912 2.51392 11.5902 2.62472C11.4892 2.73552 11.4333 2.88013 11.4336 3.03006V4.48566L11.4432 4.59366C11.4699 4.7412 11.5509 4.87339 11.6702 4.9642C11.7895 5.05501 11.9385 5.09786 12.0878 5.08431C12.2371 5.07076 12.376 5.0018 12.477 4.891C12.578 4.7802 12.6339 4.6356 12.6336 4.48566V3.02886L12.624 2.92206ZM4.48799 14.3269C5.75519 13.6357 6.93119 13.4461 8.08439 13.5901C9.25319 13.7377 10.4364 14.2321 11.6964 14.9677C13.14 15.8089 14.7972 15.9625 16.2972 15.7549C17.7948 15.5473 19.1892 14.9737 20.1492 14.2885C20.2787 14.1958 20.3662 14.0556 20.3923 13.8985C20.4184 13.7414 20.381 13.5804 20.2884 13.4509C20.1958 13.3213 20.0555 13.2339 19.8984 13.2078C19.7413 13.1817 19.5803 13.219 19.4508 13.3117C18.6612 13.8757 17.4516 14.3833 16.1328 14.5657C14.8164 14.7481 13.4496 14.6017 12.3012 13.9309C10.9716 13.1557 9.62879 12.5749 8.23319 12.3997C6.82319 12.2233 5.39519 12.4645 3.91319 13.2733C3.84401 13.311 3.78294 13.362 3.73347 13.4233C3.684 13.4847 3.6471 13.5552 3.62487 13.6308C3.60264 13.7064 3.59552 13.7856 3.60391 13.864C3.61231 13.9423 3.63605 14.0183 3.67379 14.0875C3.75002 14.2272 3.87862 14.3309 4.03131 14.3758C4.10692 14.398 4.18616 14.4051 4.26452 14.3967C4.34288 14.3883 4.41881 14.3646 4.48799 14.3269ZM4.48799 16.7269C5.75519 16.0357 6.93119 15.8461 8.08439 15.9901C9.25319 16.1377 10.4364 16.6321 11.6964 17.3677C13.14 18.2089 14.7972 18.3625 16.2972 18.1549C17.7948 17.9473 19.1892 17.3737 20.1492 16.6885C20.2787 16.5958 20.3662 16.4556 20.3923 16.2985C20.4184 16.1414 20.381 15.9804 20.2884 15.8509C20.1958 15.7213 20.0555 15.6339 19.8984 15.6078C19.7413 15.5817 19.5803 15.619 19.4508 15.7117C18.6612 16.2757 17.4516 16.7833 16.1328 16.9657C14.8164 17.1481 13.4496 17.0017 12.3012 16.3309C10.9716 15.5557 9.62879 14.9749 8.23319 14.7997C6.82319 14.6233 5.39519 14.8645 3.91319 15.6733C3.77348 15.7495 3.66976 15.8781 3.62487 16.0308C3.57997 16.1835 3.59757 16.3477 3.67379 16.4875C3.75002 16.6272 3.87862 16.7309 4.03131 16.7758C4.18401 16.8207 4.34828 16.8031 4.48799 16.7269ZM8.08439 18.3901C6.93119 18.2461 5.75519 18.4357 4.48799 19.1269C4.41881 19.1647 4.34286 19.1885 4.26447 19.197C4.18609 19.2054 4.1068 19.1984 4.03114 19.1762C3.87833 19.1314 3.74958 19.0278 3.67319 18.8881C3.63537 18.8189 3.61155 18.7429 3.60308 18.6645C3.59461 18.5862 3.60167 18.5069 3.62384 18.4312C3.66863 18.2784 3.77228 18.1496 3.91199 18.0733C5.39519 17.2645 6.82319 17.0233 8.23439 17.1997C9.62879 17.3749 10.9716 17.9557 12.3024 18.7309C13.4496 19.4005 14.8164 19.5481 16.1328 19.3669C17.4504 19.1833 18.6612 18.6769 19.4508 18.1117C19.5803 18.019 19.7413 17.9817 19.8984 18.0078C20.0555 18.0339 20.1958 18.1213 20.2884 18.2509C20.381 18.3804 20.4184 18.5414 20.3923 18.6985C20.3662 18.8556 20.2787 18.9958 20.1492 19.0885C19.1892 19.7725 17.7936 20.3473 16.2972 20.5549C14.7972 20.7625 13.14 20.6089 11.6964 19.7677C10.4364 19.0321 9.25319 18.5377 8.08439 18.3913" fill="#222222"></path></svg>