<svg width="24" height="24" viewBox="0 0 24 24" fill="none" xmlns="http://www.w3.org/2000/svg"><path d="M8.73202 17.0417L9.59732 13.383L9.61131 13.3238L9.5652 13.2842L6.74362 10.8576L10.4593 10.5096L10.5185 10.504L10.5419 10.4495L11.9995 7.05465L13.458 10.4891L13.4815 10.5446L13.5417 10.5497L17.2539 10.8598L14.4348 13.2842L14.3887 13.3238L14.4027 13.383L15.268 17.0417L12.0516 15.1043L12 15.0733L11.9484 15.1043L8.73202 17.0417ZM12 2.1C13.3001 2.1 14.5874 2.35607 15.7886 2.85359C16.9897 3.35111 18.0811 4.08034 19.0004 4.99964C19.9197 5.91894 20.6489 7.01031 21.1464 8.21143C21.6439 9.41256 21.9 10.6999 21.9 12C21.9 14.6256 20.857 17.1437 19.0004 19.0004C17.1437 20.857 14.6256 21.9 12 21.9C10.6999 21.9 9.41256 21.6439 8.21143 21.1464C7.01031 20.6489 5.91894 19.9197 4.99964 19.0004C3.14303 17.1437 2.1 14.6256 2.1 12C2.1 9.37436 3.14303 6.85625 4.99964 4.99964C6.85625 3.14303 9.37436 2.1 12 2.1ZM12 3.9C9.85175 3.9 7.79148 4.75339 6.27244 6.27244C4.75339 7.79148 3.9 9.85175 3.9 12C3.9 14.1483 4.75339 16.2085 6.27244 17.7276C7.79148 19.2466 9.85175 20.1 12 20.1C14.1483 20.1 16.2085 19.2466 17.7276 17.7276C19.2466 16.2085 20.1 14.1483 20.1 12C20.1 9.85175 19.2466 7.79148 17.7276 6.27244C16.2085 4.75339 14.1483 3.9 12 3.9Z" fill="#222222" stroke="white" stroke-width="0.2"></path></svg>