<svg width="24" height="24" viewBox="0 0 24 24" fill="none" xmlns="http://www.w3.org/2000/svg"><path d="M10.9015 12.9185C10.9015 13.524 11.3819 14.0387 12.0044 14.0387C12.6276 14.0387 13.1073 13.5237 13.1073 12.9185C13.1073 12.3135 12.6273 11.7988 12.0044 11.7988C11.383 11.7988 10.901 12.3124 10.9015 12.9185ZM10.9015 12.9185H11.4015L10.9015 12.9192C10.9015 12.919 10.9015 12.9187 10.9015 12.9185ZM10.9015 17.5687C10.9015 18.1755 11.3827 18.6884 12.0044 18.6884C12.6268 18.6884 13.1073 18.1752 13.1073 17.5687C13.1073 16.9645 12.6276 16.4491 12.0044 16.4491C11.3825 16.4491 10.901 16.9641 10.9015 17.5687ZM10.9015 17.5687H11.4015L10.9015 17.5694C10.9015 17.5692 10.9015 17.569 10.9015 17.5687ZM2.48197 7.67882V7.17882H1.98197H1.69062C1.31743 7.17882 0.984375 6.81404 0.984375 6.4793C0.984375 6.1443 1.31768 5.7793 1.69062 5.7793H22.3181C22.6914 5.7793 23.0244 6.14416 23.0244 6.4793C23.0244 6.81417 22.6917 7.17882 22.3181 7.17882H22.0561H21.5561V7.67882V9.57882H2.48197V7.67882ZM5.24981 18.6988H4.74981V19.1988V20.9796C4.74981 21.029 4.74427 21.0674 4.73724 21.0945C4.73676 21.0963 4.73629 21.0981 4.73581 21.0998H2.48488C2.48292 21.066 2.48197 21.0264 2.48197 20.9796V18.1889V16.3393H21.5556V20.9796C21.5556 21.0272 21.5538 21.0669 21.5506 21.0998H19.2979C19.2922 21.0697 19.2882 21.0297 19.2882 20.9796V19.1988V18.6988H18.7882H5.24981ZM10.9015 8.26874C10.9015 8.87348 11.3817 9.3889 12.0044 9.3889C12.6278 9.3889 13.1073 8.87322 13.1073 8.26874C13.1073 7.66426 12.6278 7.14858 12.0044 7.14858C11.3817 7.14858 10.9015 7.664 10.9015 8.26874ZM21.5561 14.3783H2.48197V11.5393H21.5561V14.3783Z" stroke="#222222"></path></svg>