<svg width="24" height="24" viewBox="0 0 24 24" fill="none" xmlns="http://www.w3.org/2000/svg"><path d="M8.092 8V8.1H8.192H9.192H9.292V8V5.385V5.285H9.192H8.192H8.092V5.385V8ZM8.092 16.116V16.216H8.192H9.192H9.292V16.116V11.769V11.669H9.192H8.192H8.092V11.769V16.116ZM5.40129 3.40129L5.40121 3.40136C5.06778 3.7355 4.9 4.14193 4.9 4.615V19.385C4.9 19.8587 5.06776 20.2652 5.40129 20.5987C5.73485 20.9323 6.14168 21.1 6.616 21.1H17.385C17.8587 21.1 18.2652 20.9322 18.5987 20.5987L18.5988 20.5986C18.9322 20.2645 19.1 19.8581 19.1 19.385V4.616C19.1 4.14168 18.9323 3.73485 18.5987 3.40129L18.5986 3.40121C18.2645 3.06778 17.8581 2.9 17.385 2.9H6.616C6.14168 2.9 5.73485 3.06773 5.40129 3.40129ZM17.385 19.9H6.616C6.45951 19.9 6.33826 19.8508 6.24371 19.7563C6.14909 19.6617 6.1 19.5407 6.1 19.385V10.485H17.9V19.385C17.9 19.5407 17.8509 19.6617 17.7563 19.7563C17.6617 19.8509 17.5407 19.9 17.385 19.9ZM17.9 4.615V9.285H6.1V4.616C6.1 4.45951 6.14916 4.33826 6.24371 4.24371C6.33833 4.14909 6.45929 4.1 6.615 4.1H17.385C17.5407 4.1 17.6617 4.14909 17.7563 4.24371C17.8509 4.33834 17.9 4.45929 17.9 4.615Z" fill="#222222" stroke="black" stroke-width="0.2"></path></svg>