<svg width="24" height="24" viewBox="0 0 24 24" fill="none" xmlns="http://www.w3.org/2000/svg"><path d="M2.57171 20.5713H21.4289C21.8835 20.5713 22.3195 20.3907 22.641 20.0692C22.9625 19.7477 23.1431 19.3117 23.1431 18.857V5.14275C23.1431 4.6881 22.9625 4.25206 22.641 3.93057C22.3195 3.60908 21.8835 3.42847 21.4289 3.42847H2.57171C2.11705 3.42847 1.68102 3.60908 1.35952 3.93057C1.03803 4.25206 0.857422 4.6881 0.857422 5.14275V18.857C0.857422 19.3117 1.03803 19.7477 1.35952 20.0692C1.68102 20.3907 2.11705 20.5713 2.57171 20.5713Z" stroke="#222222" stroke-width="1.5" stroke-linecap="round" stroke-linejoin="round"></path><path d="M15.5711 20.5712C15.0387 17.7362 13.5163 15.1825 11.2757 13.3658C9.03507 11.549 6.22188 10.5874 3.33799 10.6524C2.50564 10.6501 1.67499 10.7276 0.857422 10.8838M16.2894 10.6489C16.8555 10.6489 17.3983 10.4241 17.7986 10.0238C18.1988 9.62357 18.4237 9.0807 18.4237 8.51466C18.4237 7.94861 18.1988 7.40575 17.7986 7.00549C17.3983 6.60523 16.8555 6.38037 16.2894 6.38037C15.7234 6.38037 15.1805 6.60523 14.7803 7.00549C14.38 7.40575 14.1551 7.94861 14.1551 8.51466C14.1551 9.0807 14.38 9.62357 14.7803 10.0238C15.1805 10.4241 15.7234 10.6489 16.2894 10.6489Z" stroke="#222222" stroke-width="1.5" stroke-linecap="round" stroke-linejoin="round"></path><path d="M23.143 15.3255C20.0564 14.2879 16.6957 14.4252 13.7041 15.7112" stroke="#222222" stroke-width="1.5" stroke-linecap="round" stroke-linejoin="round"></path></svg>