<svg width="24" height="24" viewBox="0 0 24 24" fill="none" xmlns="http://www.w3.org/2000/svg"><path d="M5.49988 5.75C5.49988 5.41848 5.63157 5.10054 5.86599 4.86612C6.10042 4.6317 6.41836 4.5 6.74988 4.5C7.0814 4.5 7.39934 4.6317 7.63376 4.86612C7.86818 5.10054 7.99988 5.41848 7.99988 5.75V12.036C8.47688 12.081 8.97788 12.169 9.49988 12.31V11H15.9999V14.5C16.506 14.492 17.0094 14.4248 17.4999 14.3V5.75C17.4999 5.02065 17.2101 4.32118 16.6944 3.80546C16.1787 3.28973 15.4792 3 14.7499 3C14.0205 3 13.3211 3.28973 12.8053 3.80546C12.2896 4.32118 11.9999 5.02065 11.9999 5.75V6.25C11.9999 6.44891 12.0789 6.63968 12.2195 6.78033C12.3602 6.92098 12.551 7 12.7499 7C12.9488 7 13.1396 6.92098 13.2802 6.78033C13.4209 6.63968 13.4999 6.44891 13.4999 6.25V5.75C13.4999 5.41848 13.6316 5.10054 13.866 4.86612C14.1004 4.6317 14.4184 4.5 14.7499 4.5C15.0814 4.5 15.3993 4.6317 15.6338 4.86612C15.8682 5.10054 15.9999 5.41848 15.9999 5.75V9.5H9.49988V5.75C9.49988 5.02065 9.21015 4.32118 8.69442 3.80546C8.1787 3.28973 7.47922 3 6.74988 3C6.02053 3 5.32106 3.28973 4.80533 3.80546C4.28961 4.32118 3.99988 5.02065 3.99988 5.75V6.25C3.99988 6.44891 4.0789 6.63968 4.21955 6.78033C4.3602 6.92098 4.55097 7 4.74988 7C4.94879 7 5.13956 6.92098 5.28021 6.78033C5.42086 6.63968 5.49988 6.44891 5.49988 6.25V5.75ZM4.27988 15.526C4.13903 15.6633 3.94986 15.7398 3.75314 15.739C3.55642 15.7382 3.3679 15.6601 3.2282 15.5216C3.08851 15.3831 3.00883 15.1952 3.00634 14.9985C3.00385 14.8018 3.07874 14.612 3.21488 14.47H3.21588V14.469L3.21888 14.467L3.22288 14.462L3.23488 14.451C3.28559 14.4002 3.339 14.3521 3.39488 14.307C3.53859 14.1884 3.68883 14.0779 3.84488 13.976C4.36651 13.6389 4.93731 13.3849 5.53688 13.223C7.03288 12.817 9.13988 12.847 11.7369 14.331C14.0429 15.648 16.0699 15.641 17.5139 15.323C18.1074 15.1932 18.683 14.9917 19.2279 14.723C19.4276 14.6229 19.6216 14.5117 19.8089 14.39L19.8099 14.389L19.8119 14.388C19.9733 14.2749 20.1727 14.2299 20.367 14.2627C20.5613 14.2955 20.7349 14.4035 20.8502 14.5632C20.9656 14.723 21.0134 14.9217 20.9834 15.1165C20.9534 15.3113 20.848 15.4864 20.6899 15.604H20.6889L20.6869 15.606L20.6819 15.609L20.6679 15.619C20.6023 15.6657 20.535 15.7097 20.4659 15.751C20.2809 15.8648 20.0907 15.9699 19.8959 16.066C19.241 16.3894 18.5493 16.6318 17.8359 16.788C16.0839 17.174 13.6679 17.161 10.9929 15.633C8.72388 14.337 7.02288 14.373 5.92888 14.67C5.48102 14.789 5.05476 14.978 4.66588 15.23C4.53395 15.3151 4.4089 15.4104 4.29188 15.515L4.27988 15.526ZM3.22388 19.531C3.36504 19.6699 3.55539 19.7473 3.75341 19.7463C3.95143 19.7454 4.14104 19.6662 4.28088 19.526L4.29188 19.516L4.35888 19.456C4.42388 19.402 4.52688 19.322 4.66588 19.23C4.94588 19.047 5.36988 18.822 5.92888 18.67C7.02388 18.374 8.72388 18.337 10.9929 19.633C13.6679 21.161 16.0829 21.174 17.8369 20.788C18.5503 20.6318 19.242 20.3894 19.8969 20.066C20.147 19.9419 20.3894 19.803 20.6229 19.65L20.6679 19.62L20.6819 19.61L20.6869 19.606L20.6889 19.605L20.6899 19.604C20.848 19.4864 20.9534 19.3113 20.9834 19.1165C21.0134 18.9217 20.9656 18.723 20.8502 18.5632C20.7349 18.4035 20.5613 18.2955 20.367 18.2627C20.1727 18.2299 19.9733 18.2749 19.8119 18.388H19.8099L19.8089 18.39L19.7869 18.405L19.6789 18.475C19.5789 18.535 19.4279 18.623 19.2279 18.723C18.8279 18.922 18.2419 19.163 17.5139 19.323C16.0699 19.642 14.0439 19.648 11.7369 18.331C9.13988 16.847 7.03288 16.817 5.53688 17.223C4.79988 17.423 4.23188 17.722 3.84488 17.976C3.64352 18.1087 3.45202 18.2557 3.27188 18.416L3.23488 18.451L3.22288 18.462L3.21888 18.467L3.21688 18.469L3.21488 18.47C3.07562 18.6118 2.99834 18.8031 3.00003 19.0019C3.00171 19.2006 3.08223 19.3916 3.22388 19.531Z" fill="#222222"></path></svg>